<svg height="512" viewBox="0 0 512 512" width="512" xmlns="http://www.w3.org/2000/svg"><g id="flat"><path d="m224 192a135.691 135.691 0 0 1 47.522-103.28c-5.112-.468-10.287-.72-15.522-.72a168 168 0 1 0 156.368 229.545 136.063 136.063 0 0 1 -188.368-125.545z" fill="#f7a014"/><path d="m122.138 240a8.005 8.005 0 0 1 -7.883-9.415 143.065 143.065 0 0 1 25.591-59.337 8 8 0 1 1 12.873 9.5 126.972 126.972 0 0 0 -22.719 52.666 8 8 0 0 1 -7.862 6.586z" fill="#ffb15e"/><path d="m168 160.837a8 8 0 0 1 -5.159-14.117 144.009 144.009 0 0 1 12.412-9.36 8 8 0 0 1 8.926 13.28 127.818 127.818 0 0 0 -11.028 8.314 7.967 7.967 0 0 1 -5.151 1.883z" fill="#ffb15e"/><g fill="#dc9851"><circle cx="176" cy="352" r="9"/><circle cx="176" cy="320" r="8"/><circle cx="136" cy="304" r="8"/><circle cx="264" cy="392" r="8"/><circle cx="232" cy="368" r="8"/><circle cx="302.5" cy="377.5" r="9.5"/></g><path d="m383.282 121.767 14.695 30.999 34.023 4.397-24.941 23.554 6.332 33.717-30.109-16.442-30.109 16.442 6.333-33.717-24.942-23.554 34.024-4.397z" fill="#ffb05e"/><path d="m455.282 225.767 9.869 20.819 22.849 2.952-16.75 15.819 4.253 22.643-20.221-11.042-20.221 11.042 4.253-22.643-16.75-15.819 22.85-2.952z" fill="#f7a014"/></g></svg>